<mxfile host="app.diagrams.net" agent="Mozilla/5.0 (Windows NT 10.0; Win64; x64) AppleWebKit/537.36 (KHTML, like Gecko) Chrome/129.0.0.0 Safari/537.36 Edg/129.0.0.0" version="24.7.17">
  <diagram name="第 1 页" id="b0h1zRaE-A1s9AApytFO">
    <mxGraphModel dx="946" dy="627" grid="1" gridSize="10" guides="1" tooltips="1" connect="1" arrows="1" fold="1" page="1" pageScale="1" pageWidth="827" pageHeight="1169" math="0" shadow="0">
      <root>
        <mxCell id="0" />
        <mxCell id="1" parent="0" />
        <mxCell id="w9dNQzeAhyxX96FawgqJ-21" value="" style="endArrow=none;dashed=1;html=1;rounded=0;entryX=0.5;entryY=1;entryDx=0;entryDy=0;" edge="1" parent="1">
          <mxGeometry width="50" height="50" relative="1" as="geometry">
            <mxPoint x="685.5" y="470" as="sourcePoint" />
            <mxPoint x="684.5" y="200" as="targetPoint" />
          </mxGeometry>
        </mxCell>
        <mxCell id="w9dNQzeAhyxX96FawgqJ-20" value="" style="endArrow=none;dashed=1;html=1;rounded=0;entryX=0.5;entryY=1;entryDx=0;entryDy=0;" edge="1" parent="1">
          <mxGeometry width="50" height="50" relative="1" as="geometry">
            <mxPoint x="530.5" y="470" as="sourcePoint" />
            <mxPoint x="529.5" y="200" as="targetPoint" />
          </mxGeometry>
        </mxCell>
        <mxCell id="w9dNQzeAhyxX96FawgqJ-19" value="" style="endArrow=none;dashed=1;html=1;rounded=0;entryX=0.5;entryY=1;entryDx=0;entryDy=0;" edge="1" parent="1">
          <mxGeometry width="50" height="50" relative="1" as="geometry">
            <mxPoint x="359.5" y="470" as="sourcePoint" />
            <mxPoint x="358.5" y="200" as="targetPoint" />
          </mxGeometry>
        </mxCell>
        <mxCell id="w9dNQzeAhyxX96FawgqJ-18" value="" style="endArrow=none;dashed=1;html=1;rounded=0;entryX=0.5;entryY=1;entryDx=0;entryDy=0;" edge="1" parent="1">
          <mxGeometry width="50" height="50" relative="1" as="geometry">
            <mxPoint x="215.5" y="470" as="sourcePoint" />
            <mxPoint x="214.5" y="200" as="targetPoint" />
          </mxGeometry>
        </mxCell>
        <mxCell id="w9dNQzeAhyxX96FawgqJ-17" value="" style="endArrow=none;dashed=1;html=1;rounded=0;entryX=0.5;entryY=1;entryDx=0;entryDy=0;" edge="1" parent="1" target="w9dNQzeAhyxX96FawgqJ-1">
          <mxGeometry width="50" height="50" relative="1" as="geometry">
            <mxPoint x="91" y="470" as="sourcePoint" />
            <mxPoint x="451" y="300" as="targetPoint" />
          </mxGeometry>
        </mxCell>
        <mxCell id="w9dNQzeAhyxX96FawgqJ-1" value="&lt;font style=&quot;font-size: 14px;&quot;&gt;用户&lt;/font&gt;" style="rounded=1;whiteSpace=wrap;html=1;fillColor=#dae8fc;strokeColor=#6c8ebf;" vertex="1" parent="1">
          <mxGeometry x="50" y="160" width="80" height="40" as="geometry" />
        </mxCell>
        <mxCell id="w9dNQzeAhyxX96FawgqJ-2" value="&lt;font style=&quot;font-size: 14px;&quot;&gt;新销售平台&lt;/font&gt;" style="rounded=1;whiteSpace=wrap;html=1;fillColor=#dae8fc;strokeColor=#6c8ebf;" vertex="1" parent="1">
          <mxGeometry x="160" y="160" width="110" height="40" as="geometry" />
        </mxCell>
        <mxCell id="w9dNQzeAhyxX96FawgqJ-4" value="&lt;font style=&quot;font-size: 14px;&quot;&gt;AI业务支撑系统&lt;/font&gt;" style="rounded=1;whiteSpace=wrap;html=1;fillColor=#dae8fc;strokeColor=#6c8ebf;" vertex="1" parent="1">
          <mxGeometry x="475" y="160" width="110" height="40" as="geometry" />
        </mxCell>
        <mxCell id="w9dNQzeAhyxX96FawgqJ-5" value="&lt;font style=&quot;font-size: 14px;&quot;&gt;集团权益中心&lt;/font&gt;" style="rounded=1;whiteSpace=wrap;html=1;fillColor=#dae8fc;strokeColor=#6c8ebf;" vertex="1" parent="1">
          <mxGeometry x="304" y="160" width="110" height="40" as="geometry" />
        </mxCell>
        <mxCell id="w9dNQzeAhyxX96FawgqJ-6" value="&lt;font style=&quot;font-size: 14px;&quot;&gt;智能体业务平台&lt;/font&gt;" style="rounded=1;whiteSpace=wrap;html=1;fillColor=#dae8fc;strokeColor=#6c8ebf;" vertex="1" parent="1">
          <mxGeometry x="630" y="160" width="110" height="40" as="geometry" />
        </mxCell>
        <mxCell id="w9dNQzeAhyxX96FawgqJ-7" value="" style="rounded=0;whiteSpace=wrap;html=1;fillColor=#dae8fc;strokeColor=#6c8ebf;" vertex="1" parent="1">
          <mxGeometry x="79.5" y="240" width="21" height="40" as="geometry" />
        </mxCell>
        <mxCell id="w9dNQzeAhyxX96FawgqJ-8" value="" style="rounded=0;whiteSpace=wrap;html=1;fillColor=#dae8fc;strokeColor=#6c8ebf;" vertex="1" parent="1">
          <mxGeometry x="204.5" y="240" width="21" height="40" as="geometry" />
        </mxCell>
        <mxCell id="w9dNQzeAhyxX96FawgqJ-9" value="" style="rounded=0;whiteSpace=wrap;html=1;fillColor=#dae8fc;strokeColor=#6c8ebf;" vertex="1" parent="1">
          <mxGeometry x="348.5" y="240" width="21" height="80" as="geometry" />
        </mxCell>
        <mxCell id="w9dNQzeAhyxX96FawgqJ-10" value="" style="rounded=0;whiteSpace=wrap;html=1;fillColor=#dae8fc;strokeColor=#6c8ebf;" vertex="1" parent="1">
          <mxGeometry x="519.5" y="281" width="21" height="40" as="geometry" />
        </mxCell>
        <mxCell id="w9dNQzeAhyxX96FawgqJ-12" value="" style="rounded=0;whiteSpace=wrap;html=1;fillColor=#dae8fc;strokeColor=#6c8ebf;" vertex="1" parent="1">
          <mxGeometry x="674.5" y="282" width="21" height="40" as="geometry" />
        </mxCell>
        <mxCell id="w9dNQzeAhyxX96FawgqJ-13" value="" style="rounded=0;whiteSpace=wrap;html=1;fillColor=#dae8fc;strokeColor=#6c8ebf;" vertex="1" parent="1">
          <mxGeometry x="674.5" y="360" width="21" height="40" as="geometry" />
        </mxCell>
        <mxCell id="w9dNQzeAhyxX96FawgqJ-14" value="" style="rounded=0;whiteSpace=wrap;html=1;fillColor=#dae8fc;strokeColor=#6c8ebf;" vertex="1" parent="1">
          <mxGeometry x="519.5" y="360" width="21" height="40" as="geometry" />
        </mxCell>
        <mxCell id="w9dNQzeAhyxX96FawgqJ-15" value="" style="rounded=0;whiteSpace=wrap;html=1;fillColor=#dae8fc;strokeColor=#6c8ebf;" vertex="1" parent="1">
          <mxGeometry x="348.5" y="360" width="21" height="40" as="geometry" />
        </mxCell>
        <mxCell id="w9dNQzeAhyxX96FawgqJ-16" value="" style="rounded=0;whiteSpace=wrap;html=1;fillColor=#dae8fc;strokeColor=#6c8ebf;" vertex="1" parent="1">
          <mxGeometry x="204.5" y="360" width="21" height="80" as="geometry" />
        </mxCell>
        <mxCell id="w9dNQzeAhyxX96FawgqJ-22" value="" style="endArrow=classic;html=1;rounded=0;exitX=1;exitY=0.5;exitDx=0;exitDy=0;entryX=0;entryY=0.5;entryDx=0;entryDy=0;" edge="1" parent="1" source="w9dNQzeAhyxX96FawgqJ-7" target="w9dNQzeAhyxX96FawgqJ-8">
          <mxGeometry width="50" height="50" relative="1" as="geometry">
            <mxPoint x="390" y="350" as="sourcePoint" />
            <mxPoint x="160" y="310" as="targetPoint" />
          </mxGeometry>
        </mxCell>
        <mxCell id="w9dNQzeAhyxX96FawgqJ-23" value="发起订购" style="text;html=1;align=center;verticalAlign=middle;resizable=0;points=[];autosize=1;strokeColor=none;fillColor=none;" vertex="1" parent="1">
          <mxGeometry x="120" y="228" width="70" height="30" as="geometry" />
        </mxCell>
        <mxCell id="w9dNQzeAhyxX96FawgqJ-24" value="" style="endArrow=classic;html=1;rounded=0;exitX=1;exitY=0.5;exitDx=0;exitDy=0;entryX=0;entryY=0.25;entryDx=0;entryDy=0;" edge="1" parent="1" source="w9dNQzeAhyxX96FawgqJ-8" target="w9dNQzeAhyxX96FawgqJ-9">
          <mxGeometry width="50" height="50" relative="1" as="geometry">
            <mxPoint x="390" y="350" as="sourcePoint" />
            <mxPoint x="440" y="300" as="targetPoint" />
          </mxGeometry>
        </mxCell>
        <mxCell id="w9dNQzeAhyxX96FawgqJ-25" value="订单派发" style="text;html=1;align=center;verticalAlign=middle;resizable=0;points=[];autosize=1;strokeColor=none;fillColor=none;" vertex="1" parent="1">
          <mxGeometry x="250" y="228" width="70" height="30" as="geometry" />
        </mxCell>
        <mxCell id="w9dNQzeAhyxX96FawgqJ-26" value="" style="endArrow=classic;html=1;rounded=0;exitX=1;exitY=0.25;exitDx=0;exitDy=0;entryX=1.087;entryY=0.6;entryDx=0;entryDy=0;entryPerimeter=0;" edge="1" parent="1" target="w9dNQzeAhyxX96FawgqJ-9">
          <mxGeometry width="50" height="50" relative="1" as="geometry">
            <mxPoint x="369.5" y="254.68" as="sourcePoint" />
            <mxPoint x="470" y="270" as="targetPoint" />
            <Array as="points">
              <mxPoint x="440" y="255" />
              <mxPoint x="440" y="288" />
            </Array>
          </mxGeometry>
        </mxCell>
        <mxCell id="w9dNQzeAhyxX96FawgqJ-27" value="订单校验" style="text;html=1;align=center;verticalAlign=middle;resizable=0;points=[];autosize=1;strokeColor=none;fillColor=none;" vertex="1" parent="1">
          <mxGeometry x="369.5" y="258" width="70" height="30" as="geometry" />
        </mxCell>
        <mxCell id="w9dNQzeAhyxX96FawgqJ-28" value="订单派发" style="text;html=1;align=center;verticalAlign=middle;resizable=0;points=[];autosize=1;strokeColor=none;fillColor=none;" vertex="1" parent="1">
          <mxGeometry x="439.5" y="280" width="70" height="30" as="geometry" />
        </mxCell>
        <mxCell id="w9dNQzeAhyxX96FawgqJ-29" value="" style="endArrow=classic;html=1;rounded=0;exitX=1;exitY=0.5;exitDx=0;exitDy=0;entryX=0;entryY=0.75;entryDx=0;entryDy=0;" edge="1" parent="1" target="w9dNQzeAhyxX96FawgqJ-10">
          <mxGeometry width="50" height="50" relative="1" as="geometry">
            <mxPoint x="369.5" y="310" as="sourcePoint" />
            <mxPoint x="492.5" y="310" as="targetPoint" />
          </mxGeometry>
        </mxCell>
        <mxCell id="w9dNQzeAhyxX96FawgqJ-31" value="" style="endArrow=classic;html=1;rounded=0;entryX=0;entryY=0.75;entryDx=0;entryDy=0;exitX=1;exitY=0.75;exitDx=0;exitDy=0;" edge="1" parent="1" source="w9dNQzeAhyxX96FawgqJ-10" target="w9dNQzeAhyxX96FawgqJ-12">
          <mxGeometry width="50" height="50" relative="1" as="geometry">
            <mxPoint x="575" y="310" as="sourcePoint" />
            <mxPoint x="710" y="311" as="targetPoint" />
          </mxGeometry>
        </mxCell>
        <mxCell id="w9dNQzeAhyxX96FawgqJ-32" value="服务开通" style="text;html=1;align=center;verticalAlign=middle;resizable=0;points=[];autosize=1;strokeColor=none;fillColor=none;" vertex="1" parent="1">
          <mxGeometry x="570" y="280" width="70" height="30" as="geometry" />
        </mxCell>
        <mxCell id="w9dNQzeAhyxX96FawgqJ-33" value="" style="endArrow=classic;html=1;rounded=0;exitX=1;exitY=0.5;exitDx=0;exitDy=0;entryX=1;entryY=0.5;entryDx=0;entryDy=0;" edge="1" parent="1" source="w9dNQzeAhyxX96FawgqJ-12" target="w9dNQzeAhyxX96FawgqJ-13">
          <mxGeometry width="50" height="50" relative="1" as="geometry">
            <mxPoint x="720" y="340" as="sourcePoint" />
            <mxPoint x="720" y="400" as="targetPoint" />
            <Array as="points">
              <mxPoint x="760" y="302" />
              <mxPoint x="760" y="380" />
            </Array>
          </mxGeometry>
        </mxCell>
        <mxCell id="w9dNQzeAhyxX96FawgqJ-34" value="功能开通" style="text;html=1;align=center;verticalAlign=middle;resizable=0;points=[];autosize=1;strokeColor=none;fillColor=none;" vertex="1" parent="1">
          <mxGeometry x="690" y="322" width="70" height="30" as="geometry" />
        </mxCell>
        <mxCell id="w9dNQzeAhyxX96FawgqJ-35" value="" style="endArrow=classic;html=1;rounded=0;exitX=0;exitY=0.5;exitDx=0;exitDy=0;entryX=1;entryY=0.5;entryDx=0;entryDy=0;" edge="1" parent="1" source="w9dNQzeAhyxX96FawgqJ-13" target="w9dNQzeAhyxX96FawgqJ-14">
          <mxGeometry width="50" height="50" relative="1" as="geometry">
            <mxPoint x="390" y="350" as="sourcePoint" />
            <mxPoint x="440" y="300" as="targetPoint" />
          </mxGeometry>
        </mxCell>
        <mxCell id="w9dNQzeAhyxX96FawgqJ-36" value="成功通知" style="text;html=1;align=center;verticalAlign=middle;resizable=0;points=[];autosize=1;strokeColor=none;fillColor=none;" vertex="1" parent="1">
          <mxGeometry x="570" y="350" width="70" height="30" as="geometry" />
        </mxCell>
        <mxCell id="w9dNQzeAhyxX96FawgqJ-37" value="" style="endArrow=classic;html=1;rounded=0;exitX=0;exitY=0.5;exitDx=0;exitDy=0;entryX=1;entryY=0.5;entryDx=0;entryDy=0;" edge="1" parent="1" source="w9dNQzeAhyxX96FawgqJ-14" target="w9dNQzeAhyxX96FawgqJ-15">
          <mxGeometry width="50" height="50" relative="1" as="geometry">
            <mxPoint x="503.5" y="380" as="sourcePoint" />
            <mxPoint x="400" y="400" as="targetPoint" />
          </mxGeometry>
        </mxCell>
        <mxCell id="w9dNQzeAhyxX96FawgqJ-38" value="成功通知" style="text;html=1;align=center;verticalAlign=middle;resizable=0;points=[];autosize=1;strokeColor=none;fillColor=none;" vertex="1" parent="1">
          <mxGeometry x="405" y="352" width="70" height="30" as="geometry" />
        </mxCell>
        <mxCell id="w9dNQzeAhyxX96FawgqJ-39" value="" style="endArrow=classic;html=1;rounded=0;exitX=0;exitY=0.5;exitDx=0;exitDy=0;entryX=1;entryY=0.25;entryDx=0;entryDy=0;" edge="1" parent="1" source="w9dNQzeAhyxX96FawgqJ-15" target="w9dNQzeAhyxX96FawgqJ-16">
          <mxGeometry width="50" height="50" relative="1" as="geometry">
            <mxPoint x="338.5" y="382" as="sourcePoint" />
            <mxPoint x="204.5" y="382" as="targetPoint" />
          </mxGeometry>
        </mxCell>
        <mxCell id="w9dNQzeAhyxX96FawgqJ-40" value="订单报竣" style="text;html=1;align=center;verticalAlign=middle;resizable=0;points=[];autosize=1;strokeColor=none;fillColor=none;" vertex="1" parent="1">
          <mxGeometry x="250" y="352" width="70" height="30" as="geometry" />
        </mxCell>
        <mxCell id="w9dNQzeAhyxX96FawgqJ-42" value="" style="endArrow=classic;html=1;rounded=0;exitX=1.056;exitY=0.875;exitDx=0;exitDy=0;exitPerimeter=0;entryX=1;entryY=0.5;entryDx=0;entryDy=0;" edge="1" parent="1" source="w9dNQzeAhyxX96FawgqJ-16" target="w9dNQzeAhyxX96FawgqJ-16">
          <mxGeometry width="50" height="50" relative="1" as="geometry">
            <mxPoint x="390" y="350" as="sourcePoint" />
            <mxPoint x="240" y="400" as="targetPoint" />
            <Array as="points">
              <mxPoint x="320" y="430" />
              <mxPoint x="320" y="400" />
            </Array>
          </mxGeometry>
        </mxCell>
        <mxCell id="w9dNQzeAhyxX96FawgqJ-43" value="SKU归档" style="text;html=1;align=center;verticalAlign=middle;resizable=0;points=[];autosize=1;strokeColor=none;fillColor=none;" vertex="1" parent="1">
          <mxGeometry x="234" y="400" width="70" height="30" as="geometry" />
        </mxCell>
        <mxCell id="w9dNQzeAhyxX96FawgqJ-45" value="" style="endArrow=none;dashed=1;html=1;rounded=0;entryX=0.5;entryY=1;entryDx=0;entryDy=0;" edge="1" parent="1">
          <mxGeometry width="50" height="50" relative="1" as="geometry">
            <mxPoint x="790.5" y="830" as="sourcePoint" />
            <mxPoint x="789.5" y="560" as="targetPoint" />
          </mxGeometry>
        </mxCell>
        <mxCell id="w9dNQzeAhyxX96FawgqJ-46" value="" style="endArrow=none;dashed=1;html=1;rounded=0;entryX=0.5;entryY=1;entryDx=0;entryDy=0;" edge="1" parent="1">
          <mxGeometry width="50" height="50" relative="1" as="geometry">
            <mxPoint x="635.5" y="830" as="sourcePoint" />
            <mxPoint x="634.5" y="560" as="targetPoint" />
          </mxGeometry>
        </mxCell>
        <mxCell id="w9dNQzeAhyxX96FawgqJ-47" value="" style="endArrow=none;dashed=1;html=1;rounded=0;entryX=0.5;entryY=1;entryDx=0;entryDy=0;" edge="1" parent="1">
          <mxGeometry width="50" height="50" relative="1" as="geometry">
            <mxPoint x="349.5" y="830" as="sourcePoint" />
            <mxPoint x="348.5" y="560" as="targetPoint" />
          </mxGeometry>
        </mxCell>
        <mxCell id="w9dNQzeAhyxX96FawgqJ-48" value="" style="endArrow=none;dashed=1;html=1;rounded=0;entryX=0.5;entryY=1;entryDx=0;entryDy=0;" edge="1" parent="1">
          <mxGeometry width="50" height="50" relative="1" as="geometry">
            <mxPoint x="205.5" y="830" as="sourcePoint" />
            <mxPoint x="204.5" y="560" as="targetPoint" />
          </mxGeometry>
        </mxCell>
        <mxCell id="w9dNQzeAhyxX96FawgqJ-49" value="" style="endArrow=none;dashed=1;html=1;rounded=0;entryX=0.5;entryY=1;entryDx=0;entryDy=0;" edge="1" parent="1" target="w9dNQzeAhyxX96FawgqJ-50">
          <mxGeometry width="50" height="50" relative="1" as="geometry">
            <mxPoint x="81" y="830" as="sourcePoint" />
            <mxPoint x="441" y="660" as="targetPoint" />
          </mxGeometry>
        </mxCell>
        <mxCell id="w9dNQzeAhyxX96FawgqJ-50" value="&lt;font style=&quot;font-size: 14px;&quot;&gt;用户&lt;/font&gt;" style="rounded=1;whiteSpace=wrap;html=1;fillColor=#dae8fc;strokeColor=#6c8ebf;" vertex="1" parent="1">
          <mxGeometry x="40" y="520" width="80" height="40" as="geometry" />
        </mxCell>
        <mxCell id="w9dNQzeAhyxX96FawgqJ-51" value="&lt;font style=&quot;font-size: 14px;&quot;&gt;省CRM&lt;/font&gt;" style="rounded=1;whiteSpace=wrap;html=1;fillColor=#dae8fc;strokeColor=#6c8ebf;" vertex="1" parent="1">
          <mxGeometry x="150" y="520" width="110" height="40" as="geometry" />
        </mxCell>
        <mxCell id="w9dNQzeAhyxX96FawgqJ-52" value="&lt;font style=&quot;font-size: 14px;&quot;&gt;AI业务支撑系统&lt;/font&gt;" style="rounded=1;whiteSpace=wrap;html=1;fillColor=#dae8fc;strokeColor=#6c8ebf;" vertex="1" parent="1">
          <mxGeometry x="580" y="520" width="110" height="40" as="geometry" />
        </mxCell>
        <mxCell id="w9dNQzeAhyxX96FawgqJ-53" value="&lt;font style=&quot;font-size: 14px;&quot;&gt;集团订单中心&lt;/font&gt;" style="rounded=1;whiteSpace=wrap;html=1;fillColor=#dae8fc;strokeColor=#6c8ebf;" vertex="1" parent="1">
          <mxGeometry x="294" y="520" width="110" height="40" as="geometry" />
        </mxCell>
        <mxCell id="w9dNQzeAhyxX96FawgqJ-54" value="&lt;font style=&quot;font-size: 14px;&quot;&gt;智能体业务平台&lt;/font&gt;" style="rounded=1;whiteSpace=wrap;html=1;fillColor=#dae8fc;strokeColor=#6c8ebf;" vertex="1" parent="1">
          <mxGeometry x="735" y="520" width="110" height="40" as="geometry" />
        </mxCell>
        <mxCell id="w9dNQzeAhyxX96FawgqJ-55" value="" style="rounded=0;whiteSpace=wrap;html=1;fillColor=#dae8fc;strokeColor=#6c8ebf;" vertex="1" parent="1">
          <mxGeometry x="69.5" y="600" width="21" height="40" as="geometry" />
        </mxCell>
        <mxCell id="w9dNQzeAhyxX96FawgqJ-56" value="" style="rounded=0;whiteSpace=wrap;html=1;fillColor=#dae8fc;strokeColor=#6c8ebf;" vertex="1" parent="1">
          <mxGeometry x="194.5" y="600" width="21" height="40" as="geometry" />
        </mxCell>
        <mxCell id="w9dNQzeAhyxX96FawgqJ-57" value="" style="rounded=0;whiteSpace=wrap;html=1;fillColor=#dae8fc;strokeColor=#6c8ebf;" vertex="1" parent="1">
          <mxGeometry x="338.5" y="600" width="21" height="80" as="geometry" />
        </mxCell>
        <mxCell id="w9dNQzeAhyxX96FawgqJ-58" value="" style="rounded=0;whiteSpace=wrap;html=1;fillColor=#dae8fc;strokeColor=#6c8ebf;" vertex="1" parent="1">
          <mxGeometry x="624.5" y="641" width="21" height="40" as="geometry" />
        </mxCell>
        <mxCell id="w9dNQzeAhyxX96FawgqJ-59" value="" style="rounded=0;whiteSpace=wrap;html=1;fillColor=#dae8fc;strokeColor=#6c8ebf;" vertex="1" parent="1">
          <mxGeometry x="779.5" y="642" width="21" height="40" as="geometry" />
        </mxCell>
        <mxCell id="w9dNQzeAhyxX96FawgqJ-60" value="" style="rounded=0;whiteSpace=wrap;html=1;fillColor=#dae8fc;strokeColor=#6c8ebf;" vertex="1" parent="1">
          <mxGeometry x="779.5" y="720" width="21" height="40" as="geometry" />
        </mxCell>
        <mxCell id="w9dNQzeAhyxX96FawgqJ-61" value="" style="rounded=0;whiteSpace=wrap;html=1;fillColor=#dae8fc;strokeColor=#6c8ebf;" vertex="1" parent="1">
          <mxGeometry x="624.5" y="720" width="21" height="80" as="geometry" />
        </mxCell>
        <mxCell id="w9dNQzeAhyxX96FawgqJ-62" value="" style="rounded=0;whiteSpace=wrap;html=1;fillColor=#dae8fc;strokeColor=#6c8ebf;" vertex="1" parent="1">
          <mxGeometry x="338.5" y="720" width="21" height="80" as="geometry" />
        </mxCell>
        <mxCell id="w9dNQzeAhyxX96FawgqJ-63" value="" style="rounded=0;whiteSpace=wrap;html=1;fillColor=#dae8fc;strokeColor=#6c8ebf;" vertex="1" parent="1">
          <mxGeometry x="194.5" y="720" width="21" height="80" as="geometry" />
        </mxCell>
        <mxCell id="w9dNQzeAhyxX96FawgqJ-64" value="" style="endArrow=classic;html=1;rounded=0;exitX=1;exitY=0.5;exitDx=0;exitDy=0;entryX=0;entryY=0.5;entryDx=0;entryDy=0;" edge="1" parent="1" source="w9dNQzeAhyxX96FawgqJ-55" target="w9dNQzeAhyxX96FawgqJ-56">
          <mxGeometry width="50" height="50" relative="1" as="geometry">
            <mxPoint x="380" y="710" as="sourcePoint" />
            <mxPoint x="150" y="670" as="targetPoint" />
          </mxGeometry>
        </mxCell>
        <mxCell id="w9dNQzeAhyxX96FawgqJ-65" value="受理订购" style="text;html=1;align=center;verticalAlign=middle;resizable=0;points=[];autosize=1;strokeColor=none;fillColor=none;" vertex="1" parent="1">
          <mxGeometry x="110" y="588" width="70" height="30" as="geometry" />
        </mxCell>
        <mxCell id="w9dNQzeAhyxX96FawgqJ-66" value="" style="endArrow=classic;html=1;rounded=0;exitX=1;exitY=0.5;exitDx=0;exitDy=0;entryX=0;entryY=0.25;entryDx=0;entryDy=0;" edge="1" parent="1" source="w9dNQzeAhyxX96FawgqJ-56" target="w9dNQzeAhyxX96FawgqJ-57">
          <mxGeometry width="50" height="50" relative="1" as="geometry">
            <mxPoint x="380" y="710" as="sourcePoint" />
            <mxPoint x="430" y="660" as="targetPoint" />
          </mxGeometry>
        </mxCell>
        <mxCell id="w9dNQzeAhyxX96FawgqJ-67" value="订单派发" style="text;html=1;align=center;verticalAlign=middle;resizable=0;points=[];autosize=1;strokeColor=none;fillColor=none;" vertex="1" parent="1">
          <mxGeometry x="240" y="588" width="70" height="30" as="geometry" />
        </mxCell>
        <mxCell id="w9dNQzeAhyxX96FawgqJ-70" value="订单派发" style="text;html=1;align=center;verticalAlign=middle;resizable=0;points=[];autosize=1;strokeColor=none;fillColor=none;" vertex="1" parent="1">
          <mxGeometry x="400" y="640" width="70" height="30" as="geometry" />
        </mxCell>
        <mxCell id="w9dNQzeAhyxX96FawgqJ-71" value="" style="endArrow=classic;html=1;rounded=0;exitX=1;exitY=0.5;exitDx=0;exitDy=0;entryX=0;entryY=0.75;entryDx=0;entryDy=0;" edge="1" parent="1" target="w9dNQzeAhyxX96FawgqJ-91">
          <mxGeometry width="50" height="50" relative="1" as="geometry">
            <mxPoint x="359.5" y="670" as="sourcePoint" />
            <mxPoint x="482.5" y="670" as="targetPoint" />
          </mxGeometry>
        </mxCell>
        <mxCell id="w9dNQzeAhyxX96FawgqJ-72" value="" style="endArrow=classic;html=1;rounded=0;entryX=0;entryY=0.75;entryDx=0;entryDy=0;exitX=1;exitY=0.75;exitDx=0;exitDy=0;" edge="1" parent="1" source="w9dNQzeAhyxX96FawgqJ-58" target="w9dNQzeAhyxX96FawgqJ-59">
          <mxGeometry width="50" height="50" relative="1" as="geometry">
            <mxPoint x="680" y="670" as="sourcePoint" />
            <mxPoint x="815" y="671" as="targetPoint" />
          </mxGeometry>
        </mxCell>
        <mxCell id="w9dNQzeAhyxX96FawgqJ-73" value="服务开通" style="text;html=1;align=center;verticalAlign=middle;resizable=0;points=[];autosize=1;strokeColor=none;fillColor=none;" vertex="1" parent="1">
          <mxGeometry x="675" y="640" width="70" height="30" as="geometry" />
        </mxCell>
        <mxCell id="w9dNQzeAhyxX96FawgqJ-74" value="" style="endArrow=classic;html=1;rounded=0;exitX=1;exitY=0.5;exitDx=0;exitDy=0;entryX=1;entryY=0.5;entryDx=0;entryDy=0;" edge="1" parent="1" source="w9dNQzeAhyxX96FawgqJ-59" target="w9dNQzeAhyxX96FawgqJ-60">
          <mxGeometry width="50" height="50" relative="1" as="geometry">
            <mxPoint x="825" y="700" as="sourcePoint" />
            <mxPoint x="825" y="760" as="targetPoint" />
            <Array as="points">
              <mxPoint x="865" y="662" />
              <mxPoint x="865" y="740" />
            </Array>
          </mxGeometry>
        </mxCell>
        <mxCell id="w9dNQzeAhyxX96FawgqJ-75" value="功能开通" style="text;html=1;align=center;verticalAlign=middle;resizable=0;points=[];autosize=1;strokeColor=none;fillColor=none;" vertex="1" parent="1">
          <mxGeometry x="795" y="682" width="70" height="30" as="geometry" />
        </mxCell>
        <mxCell id="w9dNQzeAhyxX96FawgqJ-76" value="" style="endArrow=classic;html=1;rounded=0;exitX=0;exitY=0.5;exitDx=0;exitDy=0;entryX=1;entryY=0.25;entryDx=0;entryDy=0;" edge="1" parent="1" source="w9dNQzeAhyxX96FawgqJ-60" target="w9dNQzeAhyxX96FawgqJ-61">
          <mxGeometry width="50" height="50" relative="1" as="geometry">
            <mxPoint x="495" y="710" as="sourcePoint" />
            <mxPoint x="545" y="660" as="targetPoint" />
          </mxGeometry>
        </mxCell>
        <mxCell id="w9dNQzeAhyxX96FawgqJ-77" value="开通通知" style="text;html=1;align=center;verticalAlign=middle;resizable=0;points=[];autosize=1;strokeColor=none;fillColor=none;" vertex="1" parent="1">
          <mxGeometry x="675" y="710" width="70" height="30" as="geometry" />
        </mxCell>
        <mxCell id="w9dNQzeAhyxX96FawgqJ-78" value="" style="endArrow=classic;html=1;rounded=0;exitX=0;exitY=0.25;exitDx=0;exitDy=0;entryX=1;entryY=0.25;entryDx=0;entryDy=0;" edge="1" parent="1" source="w9dNQzeAhyxX96FawgqJ-61" target="w9dNQzeAhyxX96FawgqJ-92">
          <mxGeometry width="50" height="50" relative="1" as="geometry">
            <mxPoint x="493.5" y="740" as="sourcePoint" />
            <mxPoint x="390" y="760" as="targetPoint" />
          </mxGeometry>
        </mxCell>
        <mxCell id="w9dNQzeAhyxX96FawgqJ-79" value="开通通知" style="text;html=1;align=center;verticalAlign=middle;resizable=0;points=[];autosize=1;strokeColor=none;fillColor=none;" vertex="1" parent="1">
          <mxGeometry x="540" y="710" width="70" height="30" as="geometry" />
        </mxCell>
        <mxCell id="w9dNQzeAhyxX96FawgqJ-80" value="" style="endArrow=classic;html=1;rounded=0;exitX=0;exitY=0.25;exitDx=0;exitDy=0;entryX=1;entryY=0.25;entryDx=0;entryDy=0;" edge="1" parent="1" source="w9dNQzeAhyxX96FawgqJ-62" target="w9dNQzeAhyxX96FawgqJ-63">
          <mxGeometry width="50" height="50" relative="1" as="geometry">
            <mxPoint x="328.5" y="742" as="sourcePoint" />
            <mxPoint x="194.5" y="742" as="targetPoint" />
          </mxGeometry>
        </mxCell>
        <mxCell id="w9dNQzeAhyxX96FawgqJ-81" value="开通通知" style="text;html=1;align=center;verticalAlign=middle;resizable=0;points=[];autosize=1;strokeColor=none;fillColor=none;" vertex="1" parent="1">
          <mxGeometry x="240" y="712" width="70" height="30" as="geometry" />
        </mxCell>
        <mxCell id="w9dNQzeAhyxX96FawgqJ-89" value="&lt;font style=&quot;font-size: 14px;&quot;&gt;集团编排中心&lt;/font&gt;" style="rounded=1;whiteSpace=wrap;html=1;fillColor=#dae8fc;strokeColor=#6c8ebf;" vertex="1" parent="1">
          <mxGeometry x="450" y="520" width="110" height="40" as="geometry" />
        </mxCell>
        <mxCell id="w9dNQzeAhyxX96FawgqJ-90" value="" style="endArrow=none;dashed=1;html=1;rounded=0;entryX=0.5;entryY=1;entryDx=0;entryDy=0;" edge="1" parent="1">
          <mxGeometry width="50" height="50" relative="1" as="geometry">
            <mxPoint x="505.5" y="830" as="sourcePoint" />
            <mxPoint x="504.5" y="560" as="targetPoint" />
          </mxGeometry>
        </mxCell>
        <mxCell id="w9dNQzeAhyxX96FawgqJ-91" value="" style="rounded=0;whiteSpace=wrap;html=1;fillColor=#dae8fc;strokeColor=#6c8ebf;" vertex="1" parent="1">
          <mxGeometry x="494.5" y="641" width="21" height="40" as="geometry" />
        </mxCell>
        <mxCell id="w9dNQzeAhyxX96FawgqJ-92" value="" style="rounded=0;whiteSpace=wrap;html=1;fillColor=#dae8fc;strokeColor=#6c8ebf;" vertex="1" parent="1">
          <mxGeometry x="494.5" y="720" width="21" height="80" as="geometry" />
        </mxCell>
        <mxCell id="w9dNQzeAhyxX96FawgqJ-93" value="" style="endArrow=classic;html=1;rounded=0;exitX=1;exitY=0.75;exitDx=0;exitDy=0;entryX=0;entryY=0.75;entryDx=0;entryDy=0;" edge="1" parent="1" source="w9dNQzeAhyxX96FawgqJ-91" target="w9dNQzeAhyxX96FawgqJ-58">
          <mxGeometry width="50" height="50" relative="1" as="geometry">
            <mxPoint x="560" y="690" as="sourcePoint" />
            <mxPoint x="640" y="700" as="targetPoint" />
          </mxGeometry>
        </mxCell>
        <mxCell id="w9dNQzeAhyxX96FawgqJ-94" value="订单派发" style="text;html=1;align=center;verticalAlign=middle;resizable=0;points=[];autosize=1;strokeColor=none;fillColor=none;" vertex="1" parent="1">
          <mxGeometry x="530.5" y="640" width="70" height="30" as="geometry" />
        </mxCell>
        <mxCell id="w9dNQzeAhyxX96FawgqJ-95" value="" style="endArrow=classic;html=1;rounded=0;exitX=0;exitY=0.25;exitDx=0;exitDy=0;" edge="1" parent="1" source="w9dNQzeAhyxX96FawgqJ-92">
          <mxGeometry width="50" height="50" relative="1" as="geometry">
            <mxPoint x="675" y="750" as="sourcePoint" />
            <mxPoint x="360" y="740" as="targetPoint" />
          </mxGeometry>
        </mxCell>
        <mxCell id="w9dNQzeAhyxX96FawgqJ-96" value="开通通知" style="text;html=1;align=center;verticalAlign=middle;resizable=0;points=[];autosize=1;strokeColor=none;fillColor=none;" vertex="1" parent="1">
          <mxGeometry x="400" y="710" width="70" height="30" as="geometry" />
        </mxCell>
        <mxCell id="w9dNQzeAhyxX96FawgqJ-145" value="" style="endArrow=classic;html=1;rounded=0;exitX=1;exitY=0.75;exitDx=0;exitDy=0;entryX=0;entryY=0.75;entryDx=0;entryDy=0;" edge="1" parent="1" source="w9dNQzeAhyxX96FawgqJ-63" target="w9dNQzeAhyxX96FawgqJ-62">
          <mxGeometry width="50" height="50" relative="1" as="geometry">
            <mxPoint x="460" y="690" as="sourcePoint" />
            <mxPoint x="510" y="640" as="targetPoint" />
          </mxGeometry>
        </mxCell>
        <mxCell id="w9dNQzeAhyxX96FawgqJ-146" value="订单报竣" style="text;html=1;align=center;verticalAlign=middle;resizable=0;points=[];autosize=1;strokeColor=none;fillColor=none;" vertex="1" parent="1">
          <mxGeometry x="240" y="747" width="70" height="30" as="geometry" />
        </mxCell>
        <mxCell id="w9dNQzeAhyxX96FawgqJ-148" value="" style="endArrow=classic;html=1;rounded=0;exitX=1;exitY=0.75;exitDx=0;exitDy=0;entryX=0;entryY=0.75;entryDx=0;entryDy=0;" edge="1" parent="1" source="w9dNQzeAhyxX96FawgqJ-62" target="w9dNQzeAhyxX96FawgqJ-92">
          <mxGeometry width="50" height="50" relative="1" as="geometry">
            <mxPoint x="378.5" y="790" as="sourcePoint" />
            <mxPoint x="501.5" y="790" as="targetPoint" />
          </mxGeometry>
        </mxCell>
        <mxCell id="w9dNQzeAhyxX96FawgqJ-149" value="" style="endArrow=classic;html=1;rounded=0;exitX=1;exitY=0.75;exitDx=0;exitDy=0;entryX=0;entryY=0.75;entryDx=0;entryDy=0;" edge="1" parent="1" source="w9dNQzeAhyxX96FawgqJ-92" target="w9dNQzeAhyxX96FawgqJ-61">
          <mxGeometry width="50" height="50" relative="1" as="geometry">
            <mxPoint x="236" y="800" as="sourcePoint" />
            <mxPoint x="359" y="800" as="targetPoint" />
          </mxGeometry>
        </mxCell>
      </root>
    </mxGraphModel>
  </diagram>
</mxfile>
